# xmcd
#
# Track frame offsets: 
#        150
#        31544
#        60267
#        92913
#        147015
#        181244
#        238965
#        267570
#
# Disc length: 4043 seconds
#
# Revision: 0
# Processed by: cddbd v1.5.2PL0 Copyright (c) Steve Scherf et al.
# Submitted via: ExactAudioCopy v1.0b4
#
DISCID=650fc908
DTITLE=Nick Moss Band - Live And Luscious (In Eutin Germany)
DYEAR=2015
DGENRE=Blues
TTITLE0=Breakdown
TTITLE1=Catch Me I'm Falling
TTITLE2=Try To Treat You Right
TTITLE3=The End
TTITLE4=Time Ain't Free
TTITLE5=Shade Tree
TTITLE6=I Dig
TTITLE7=Stand By
EXTD=
EXTT0=
EXTT1=
EXTT2=
EXTT3=
EXTT4=
EXTT5=
EXTT6=
EXTT7=
PLAYORDER=
